<svg id="currentIcon" width="100%" height="100%" viewBox="0 0 100 100" xmlns="http://www.w3.org/2000/svg" aria-labelledby="cnnIconTitle" role="img"> 
    <title>Flatten Icon</title>
    <rect x="15" y="15" width="30" height="30" fill="#e5e7eb" stroke="#9ca3af" stroke-width="1"/>
    <path d="M 22.5 15 V 45 M 30 15 V 45 M 37.5 15 V 45 M 15 22.5 H 45 M 15 30 H 45 M 15 37.5 H 45" stroke="#9ca3af" stroke-width="1"/>
    <path d="M 50 30 L 60 30 L 60 25 L 70 35 L 60 45 L 60 40 L 50 40 Z" fill="#4b5563"/>
    <rect x="15" y="70" width="70" height="15" fill="#e5e7eb" stroke="#9ca3af" stroke-width="1"/>
    <path d="M 22.5 70 V 85 M 30 70 V 85 M 37.5 70 V 85 M 45 70 V 85 M 52.5 70 V 85 M 60 70 V 85 M 67.5 70 V 85 M 75 70 V 85 M 82.5 70 V 85" stroke="#9ca3af" stroke-width="1"/>
</svg>
